<?xml version="1.0" standalone="no"?>
<!DOCTYPE svg PUBLIC "-//W3C//DTD SVG 20010904//EN"
 "http://www.w3.org/TR/2001/REC-SVG-20010904/DTD/svg10.dtd">
<svg version="1.0" xmlns="http://www.w3.org/2000/svg"
 width="325.000000pt" height="53.000000pt" viewBox="0 0 325.000000 53.000000"
 preserveAspectRatio="xMidYMid meet">

<g transform="translate(0.000000,53.000000) scale(0.100000,-0.100000)"
fill="#000000" stroke="none">
<path d="M206 501 c-3 -5 -15 -7 -25 -4 -27 7 -35 -13 -11 -30 19 -13 20 -18
8 -61 -13 -51 -34 -64 -23 -15 5 22 4 29 -4 25 -6 -4 -11 -15 -11 -25 0 -11
-9 -21 -21 -24 -12 -3 -18 -10 -14 -17 4 -6 13 -9 20 -6 19 7 27 -23 11 -40
-19 -19 -45 -8 -39 17 4 14 0 19 -16 19 -26 0 -27 16 -1 55 11 17 20 40 20 51
0 12 8 25 18 29 16 7 15 8 -3 15 -25 9 -45 -6 -45 -34 0 -11 -9 -50 -20 -86
-11 -36 -20 -70 -20 -76 0 -8 65 -12 224 -13 212 -1 225 0 250 20 l26 21 19
-24 c18 -22 24 -23 133 -20 109 3 114 4 135 29 l22 27 10 -27 c12 -30 11 -30
101 -27 69 2 122 19 62 20 -26 0 -35 5 -39 21 -4 16 -8 17 -14 7 -7 -10 -9
-10 -9 0 0 6 -5 12 -11 12 -5 0 -7 -5 -3 -12 5 -7 2 -9 -9 -5 -9 3 -17 1 -19
-4 -2 -6 -10 0 -17 14 -11 21 -11 28 4 51 12 19 23 25 34 20 9 -4 24 -7 33 -8
13 0 16 -6 12 -26 -4 -21 -3 -22 6 -8 6 10 8 28 5 41 -8 30 -55 34 -98 9 -27
-16 -29 -16 -38 1 -9 15 -26 17 -129 17 -65 0 -130 -4 -144 -10 -30 -11 -35 3
-12 29 8 9 16 25 18 36 3 19 -3 20 -71 20 l-74 0 -21 -95 c-12 -54 -25 -93
-31 -90 -14 7 -1 125 20 173 6 15 0 17 -58 17 -87 0 -97 -5 -97 -46 0 -19 -4
-34 -9 -34 -5 0 -12 -25 -16 -55 -6 -50 -9 -55 -31 -55 -32 0 -32 29 1 68 23
28 48 105 37 117 -8 8 -20 6 -26 -4z m119 -42 c4 -12 4 -40 1 -64 -5 -32 -12
-44 -28 -48 -23 -7 -38 -1 -38 13 0 5 7 7 15 4 9 -4 15 0 15 9 0 8 -6 17 -14
20 -27 11 4 87 35 87 4 0 11 -9 14 -21z m179 -26 c-9 -37 -14 -44 -24 -38 -7
4 -7 40 -1 63 1 1 8 2 16 2 12 0 14 -7 9 -27z m222 -75 c-8 -49 -13 -58 -32
-58 -9 0 -14 10 -14 28 0 48 11 72 32 72 18 0 20 -4 14 -42z m84 24 c0 -5 -7
-17 -15 -28 -14 -18 -14 -18 -15 9 0 17 5 27 15 27 8 0 15 -4 15 -8z"/>
<path d="M2794 496 c-17 -8 -39 -26 -50 -41 l-20 -27 -160 -1 c-94 -1 -161 -6
-164 -12 -3 -6 23 -11 68 -13 39 -2 72 -7 72 -11 0 -13 -81 -31 -117 -26 -38
5 -56 -13 -51 -51 3 -25 7 -28 43 -29 22 -1 86 -5 142 -9 l102 -8 7 28 c21 95
25 104 45 104 18 0 19 -4 13 -37 -4 -21 -11 -48 -15 -61 -11 -29 1 -34 77 -30
l59 3 10 60 11 60 62 3 62 3 0 -55 c0 -45 4 -57 20 -66 27 -14 172 -9 177 7 3
7 -8 13 -24 15 -33 4 -40 26 -23 68 10 24 19 29 53 32 56 4 62 28 7 28 l-43 0
6 40 5 40 -74 0 -73 0 -12 -40 -12 -41 -56 3 c-42 2 -56 7 -56 18 0 10 14 17
42 21 47 6 58 12 48 28 -9 16 -144 13 -181 -3z m-394 -176 c-5 -22 -8 -27 -9
-13 -1 21 9 56 14 51 2 -2 0 -19 -5 -38z m70 6 c0 -25 -15 -37 -37 -28 -16 5
-17 24 -1 40 20 20 38 14 38 -12z m61 11 c-1 -4 -1 -14 -1 -22 0 -19 -26 -20
-33 -1 -3 7 0 19 6 25 12 12 29 11 28 -2z"/>
<path d="M1726 483 c-14 -44 -43 -203 -38 -208 3 -3 32 -5 64 -5 51 0 58 2 58
19 0 11 2 28 5 38 4 11 1 10 -6 -4 -16 -29 -66 -40 -87 -19 -15 15 -15 23 1
98 9 45 23 86 30 90 8 5 7 8 -5 8 -9 0 -19 -8 -22 -17z"/>
<path d="M1830 484 c0 -8 5 -12 10 -9 6 3 10 10 10 16 0 5 -4 9 -10 9 -5 0
-10 -7 -10 -16z"/>
<path d="M2032 469 c-19 -30 -11 -32 17 -3 15 15 18 24 9 24 -7 0 -19 -9 -26
-21z"/>
<path d="M1830 434 c0 -22 27 -47 44 -41 10 4 14 11 11 17 -4 6 -11 7 -17 4
-6 -4 -17 1 -25 11 -7 11 -13 14 -13 9z"/>
<path d="M1360 420 c-12 -8 -11 -10 8 -10 12 0 22 5 22 10 0 13 -11 13 -30 0z"/>
<path d="M1437 423 c-16 -16 -4 -23 38 -23 34 0 45 -4 45 -16 0 -23 24 -11 28
14 3 16 9 20 30 17 15 -2 30 -4 35 -4 4 -1 2 -10 -5 -21 -8 -13 -20 -19 -30
-16 -11 2 -18 -2 -18 -10 0 -8 -7 -17 -15 -20 -8 -3 -17 -14 -20 -25 -7 -20
-55 -28 -55 -9 0 16 -26 11 -44 -8 -16 -18 -13 -19 96 -25 110 -6 138 -1 123
23 -5 7 -21 9 -46 5 -34 -6 -39 -4 -39 12 0 10 15 28 34 41 18 12 43 34 56 47
l23 25 -115 0 c-63 0 -118 -3 -121 -7z"/>
<path d="M2340 409 c0 -15 -6 -19 -26 -17 -15 2 -29 -3 -31 -9 -7 -19 48 -16
75 3 27 19 28 30 2 37 -15 4 -20 0 -20 -14z"/>
<path d="M1042 409 c2 -6 8 -10 13 -10 5 0 11 4 13 10 2 6 -4 11 -13 11 -9 0
-15 -5 -13 -11z"/>
<path d="M2102 390 c0 -19 2 -27 5 -17 2 9 2 25 0 35 -3 9 -5 1 -5 -18z"/>
<path d="M1485 340 c-3 -6 1 -7 9 -4 18 7 21 14 7 14 -6 0 -13 -4 -16 -10z"/>
<path d="M2000 329 c-12 -7 -12 -9 4 -9 12 0 16 -5 12 -15 -3 -9 0 -15 8 -15
9 0 12 7 9 20 -7 26 -15 31 -33 19z"/>
<path d="M1960 315 c0 -8 -4 -15 -10 -15 -5 0 -10 5 -10 12 0 9 -3 9 -11 1
-16 -16 -2 -33 27 -33 19 0 24 5 24 25 0 14 -4 25 -10 25 -5 0 -10 -7 -10 -15z"/>
<path d="M2081 304 c0 -11 3 -14 6 -6 3 7 2 16 -1 19 -3 4 -6 -2 -5 -13z"/>
<path d="M2165 300 c-18 -8 -17 -9 8 -9 16 -1 26 3 22 9 -3 6 -7 10 -8 9 -1 0
-11 -4 -22 -9z"/>
<path d="M1290 290 c0 -5 14 -10 30 -10 17 0 30 5 30 10 0 6 -13 10 -30 10
-16 0 -30 -4 -30 -10z"/>
<path d="M947 210 c-9 -11 -26 -20 -37 -20 -11 0 -20 -1 -20 -3 0 -13 43 -87
50 -87 6 0 10 -7 10 -15 0 -8 5 -15 10 -15 6 0 10 4 10 10 0 20 28 -3 45 -38
10 -20 20 -32 22 -25 2 6 -10 37 -26 67 -36 63 -36 66 -16 66 8 0 15 3 15 6 0
7 -40 74 -44 74 -1 0 -9 -9 -19 -20z"/>
<path d="M1096 188 c-3 -7 -7 -32 -10 -55 -6 -41 -5 -43 19 -43 18 0 26 7 31
25 5 20 13 25 38 26 29 1 29 1 6 8 -14 4 -27 16 -30 30 -4 19 -7 15 -19 -23
-17 -60 -35 -60 -29 -1 5 43 2 59 -6 33z"/>
<path d="M1221 184 c0 -11 3 -14 6 -6 3 7 2 16 -1 19 -3 4 -6 -2 -5 -13z"/>
<path d="M1271 184 c0 -11 3 -14 6 -6 3 7 2 16 -1 19 -3 4 -6 -2 -5 -13z"/>
<path d="M1880 186 c0 -7 7 -19 15 -26 10 -9 15 -9 15 -1 0 6 -4 11 -10 11 -5
0 -7 7 -4 15 4 8 1 15 -5 15 -6 0 -11 -6 -11 -14z"/>
<path d="M1930 190 c0 -13 11 -13 30 0 12 8 11 10 -7 10 -13 0 -23 -4 -23 -10z"/>
<path d="M1992 181 c13 -21 28 -19 28 5 0 8 -9 14 -20 14 -17 0 -19 -3 -8 -19z"/>
<path d="M2230 166 c-6 -20 -8 -41 -3 -48 5 -8 10 4 14 32 8 56 4 62 -11 16z"/>
<path d="M2487 180 c-9 -13 -27 -21 -53 -22 -41 -3 -54 -12 -54 -40 0 -14 8
-18 34 -18 28 0 35 4 38 22 4 29 28 36 28 9 0 -14 9 -25 26 -31 36 -14 47 -12
40 6 -4 9 0 24 8 33 9 10 13 26 9 39 -7 29 -56 30 -76 2z"/>
<path d="M2628 193 c6 -2 18 -2 25 0 6 3 1 5 -13 5 -14 0 -19 -2 -12 -5z"/>
<path d="M2050 188 c0 -3 7 -19 15 -34 8 -16 15 -22 15 -14 -1 8 -7 24 -15 34
-8 11 -15 17 -15 14z"/>
<path d="M1733 157 c4 -10 2 -17 -3 -17 -6 0 -10 5 -10 10 0 6 -11 10 -25 10
-18 0 -26 -7 -31 -24 -9 -37 2 -46 55 -46 34 0 53 5 64 18 20 22 22 52 5 52
-7 0 -24 3 -37 7 -20 5 -23 3 -18 -10z"/>
<path d="M3020 158 c0 -8 5 -19 12 -26 9 -9 9 -15 1 -23 -16 -16 -33 -2 -33
27 l0 24 -200 0 -200 0 0 -33 0 -33 255 -2 256 -1 9 25 c7 18 16 24 32 22 11
-2 23 3 25 10 3 9 -11 12 -54 12 -32 0 -68 3 -80 6 -16 4 -23 2 -23 -8z"/>
<path d="M1327 153 c-4 -3 -7 -13 -7 -22 1 -13 3 -13 11 2 11 19 8 33 -4 20z"/>
<path d="M1373 133 c2 -26 -1 -28 -32 -26 -18 1 -38 7 -42 15 -7 10 -9 9 -9
-4 0 -12 12 -19 44 -23 56 -9 86 6 86 43 0 19 -3 23 -9 13 -6 -9 -11 -10 -15
-2 -13 20 -25 11 -23 -16z"/>
<path d="M1462 148 c-14 -14 -16 -58 -3 -58 23 0 41 14 41 31 0 10 5 19 10 19
6 0 10 -11 10 -24 0 -22 4 -24 51 -24 44 0 51 3 60 25 5 13 9 29 9 34 0 14
-164 11 -178 -3z m21 -23 c-7 -21 -13 -19 -13 6 0 11 4 18 10 14 5 -3 7 -12 3
-20z m134 3 c-3 -8 -6 -5 -6 6 -1 11 2 17 5 13 3 -3 4 -12 1 -19z m-27 -8 c0
-5 -2 -10 -4 -10 -3 0 -8 5 -11 10 -3 6 -1 10 4 10 6 0 11 -4 11 -10z"/>
<path d="M2317 153 c-4 -3 -7 -17 -7 -30 0 -17 6 -23 23 -23 17 0 22 6 24 30
2 34 -12 32 -28 -4 -8 -19 -9 -18 -6 7 4 29 4 31 -6 20z"/>
<path d="M1210 118 c0 -10 4 -18 9 -18 18 0 41 12 41 22 0 6 -7 5 -16 -3 -13
-10 -17 -10 -25 2 -7 11 -9 11 -9 -3z"/>
<path d="M1920 116 c0 -9 -13 -16 -32 -19 -27 -4 -25 -4 7 -3 29 1 41 6 43 19
2 9 -1 17 -7 17 -6 0 -11 -6 -11 -14z"/>
<path d="M1960 110 c-12 -8 -10 -10 8 -10 13 0 20 4 17 10 -7 12 -6 12 -25 0z"/>
<path d="M2145 110 c-3 -5 -1 -10 4 -10 6 0 11 5 11 10 0 6 -2 10 -4 10 -3 0
-8 -4 -11 -10z"/>
</g>
</svg>
